<svg width="64" height="64" viewBox="0 0 64 64" xmlns="http://www.w3.org/2000/svg">
  <defs>
    <radialGradient id="bg" cx="35%" cy="25%">
      <stop offset="0" stop-color="#b178ff" stop-opacity=".32"/>
      <stop offset="1" stop-color="#31214a"/>
    </radialGradient>
    <filter id="glow"><feGaussianBlur stdDeviation="2.2" result="b"/><feMerge><feMergeNode in="b"/><feMergeNode in="SourceGraphic"/></feMerge></filter>
  </defs>
  <rect x="1" y="1" width="62" height="62" rx="12" fill="url(#bg)" stroke="#b178ff" stroke-opacity=".55"/>
  <circle cx="18" cy="29" r="2" fill="#ffb4ec" opacity=".55"/>
  <path d="M9 51 20 55M44 9l11 4" stroke="#ffb4ec" stroke-opacity=".28" stroke-width="2"/>
  <g color="#b178ff" filter="url(#glow)" transform="rotate(-7 32 32)"><path d="M9 38c10-13 18-13 25 0 7 13 14 12 21-1-8 21-20 22-29 5-5-9-10-9-17-4Z" fill="currentColor"/><path d="M12 27c8-8 15-8 21 0" fill="none" stroke="currentColor" stroke-width="3"/></g>
  <rect x="5" y="5" width="54" height="54" rx="9" fill="none" stroke="#ffb4ec" stroke-opacity=".14"/>
</svg>